<?xml version="1.0" standalone="no"?>
<!DOCTYPE svg PUBLIC "-//W3C//DTD SVG 20010904//EN"
 "http://www.w3.org/TR/2001/REC-SVG-20010904/DTD/svg10.dtd">
<svg version="1.0" xmlns="http://www.w3.org/2000/svg"
 width="600.000000pt" height="600.000000pt" viewBox="0 0 600.000000 600.000000"
 preserveAspectRatio="xMidYMid meet">

<g transform="translate(0.000000,600.000000) scale(0.100000,-0.100000)"
fill="#000000" stroke="none">
<path d="M3000 5648 c-214 -15 -307 -48 -365 -129 -19 -27 -57 -63 -83 -79
-97 -59 -132 -103 -132 -166 0 -12 -4 -26 -10 -29 -5 -3 -10 -17 -10 -29 0
-13 -9 -34 -19 -47 -19 -24 -34 -136 -19 -142 4 -1 17 -30 29 -64 21 -57 22
-66 10 -130 -12 -59 -11 -77 3 -132 9 -34 16 -80 16 -101 0 -21 7 -73 16 -116
14 -68 15 -93 4 -199 -15 -140 -10 -238 20 -390 12 -60 25 -130 29 -155 4 -25
17 -70 28 -100 12 -30 34 -89 49 -130 24 -66 81 -180 117 -233 10 -14 7 -28
-20 -80 -18 -34 -41 -84 -53 -112 -11 -27 -28 -57 -37 -67 -9 -10 -21 -28 -27
-41 -7 -12 -41 -41 -76 -63 -90 -58 -142 -102 -175 -149 -41 -57 -103 -131
-154 -184 -54 -57 -103 -158 -105 -216 0 -23 -4 -41 -7 -39 -3 1 -23 -32 -44
-75 -30 -63 -53 -92 -114 -149 -79 -71 -101 -111 -101 -177 0 -15 -15 -53 -34
-84 -19 -31 -46 -80 -61 -110 -15 -30 -32 -60 -39 -67 -11 -11 -59 -85 -121
-185 -37 -60 -136 -189 -191 -250 -23 -25 -51 -72 -63 -105 -21 -54 -22 -72
-19 -209 l4 -150 49 -128 c52 -138 57 -143 167 -205 34 -19 37 -20 41 -4 4 15
5 15 6 1 1 -16 29 -29 61 -29 9 1 5 7 -10 15 -14 8 -19 14 -12 15 9 0 11 11 7
40 -4 30 -2 42 9 46 8 3 17 21 21 41 7 38 34 87 43 78 3 -3 -2 -13 -10 -22
-14 -15 -24 -79 -19 -120 2 -24 17 -13 19 14 3 37 6 38 35 9 25 -25 25 -25 4
-23 -16 1 -23 -4 -25 -20 -2 -17 1 -21 11 -17 22 8 30 -26 12 -46 -12 -13 -13
-20 -5 -25 14 -9 15 -8 45 51 l25 49 -6 -37 c-4 -27 -3 -38 6 -38 8 0 9 -6 5
-17 -12 -27 -15 -93 -4 -93 5 0 9 7 9 17 0 16 14 10 16 -8 1 -5 2 -13 3 -18 0
-5 8 -12 17 -15 12 -4 14 -1 9 14 -8 25 0 25 27 0 12 -10 24 -17 28 -15 7 4
29 -15 59 -51 14 -16 15 -16 21 1 6 17 7 16 13 -4 4 -18 11 -22 26 -18 12 3
19 1 16 -4 -3 -4 7 -12 22 -15 15 -4 46 -16 69 -25 73 -33 224 -69 224 -55 0
9 9 12 28 9 15 -3 22 -1 16 4 -20 16 -24 42 -6 53 15 8 15 11 2 19 -16 11 -14
16 15 25 15 4 21 1 22 -12 0 -9 4 -39 8 -66 8 -45 7 -49 -10 -42 -15 5 -16 4
-5 -9 19 -23 30 -18 31 13 l1 27 8 -25 c4 -14 8 -19 9 -12 1 6 10 12 20 12 32
0 34 19 4 26 -53 14 -71 59 -20 50 12 -1 16 -1 10 1 -7 3 -13 9 -13 15 0 6 8
7 18 3 9 -4 25 -8 36 -11 18 -3 45 -31 46 -46 0 -5 8 -8 18 -9 15 0 15 -1 -2
-8 -19 -7 -19 -8 -1 -14 29 -12 11 -17 -23 -8 -26 8 -32 7 -32 -5 0 -8 4 -13
9 -9 5 3 12 1 16 -5 3 -5 15 -10 27 -10 14 0 18 -5 14 -15 -3 -9 0 -15 9 -15
11 0 15 12 15 41 0 33 2 38 13 27 7 -7 13 -24 14 -37 1 -13 6 -28 10 -32 10
-10 195 -27 318 -30 453 -9 795 50 1205 208 133 52 389 183 489 251 97 66 85
41 156 327 25 99 61 223 81 275 148 392 153 418 161 770 4 187 1 293 -8 360
-6 52 -14 132 -16 178 -3 45 -9 82 -14 82 -5 0 -9 7 -9 15 0 35 -76 217 -133
318 -91 164 -154 217 -422 363 -41 22 -80 34 -125 39 -79 8 -202 48 -250 80
-35 24 -69 38 -122 49 -15 3 -29 15 -33 25 -3 10 -17 22 -30 25 -18 5 -27 16
-35 49 -5 23 -16 65 -25 92 -8 28 -17 61 -21 74 -3 13 -21 40 -39 60 -47 53
-51 98 -15 176 16 35 47 84 69 109 55 64 131 235 131 297 0 11 10 35 23 52 18
27 22 45 22 108 0 66 -4 84 -32 138 -26 50 -30 67 -23 87 6 14 10 42 10 62 0
20 7 45 14 55 19 25 20 131 1 168 -9 16 -16 55 -16 87 -2 91 -29 148 -122 249
-45 50 -104 107 -132 128 -27 21 -70 56 -95 80 -111 105 -322 218 -400 213
-14 0 -81 -5 -150 -10z m-86 -495 c13 5 19 1 23 -13 6 -22 23 -27 23 -7 0 11
21 14 86 14 69 1 84 -2 80 -13 -7 -19 28 -54 54 -54 15 0 20 -7 20 -25 0 -20
12 -73 32 -145 3 -8 3 -12 1 -7 -11 18 -23 4 -23 -28 0 -22 -4 -34 -12 -33 -7
2 -14 -8 -16 -21 -2 -13 -12 -26 -23 -28 -10 -3 -19 -10 -19 -15 0 -6 -12 -8
-30 -5 -17 4 -40 0 -56 -8 -15 -7 -40 -11 -58 -8 -22 3 -43 -2 -68 -17 -38
-22 -40 -25 -62 -160 -9 -52 -39 -120 -53 -120 -7 0 -13 -5 -13 -12 0 -6 -3
-8 -7 -4 -4 3 -7 28 -8 54 -1 26 -11 68 -22 92 -12 25 -27 64 -34 87 -7 24
-22 49 -33 57 -25 16 -72 19 -101 6 -11 -5 -37 -11 -58 -15 -20 -3 -46 -16
-57 -27 -11 -12 -22 -19 -25 -16 -3 3 -1 49 4 103 10 94 30 143 53 129 4 -3 8
-2 7 3 -1 4 -1 15 0 23 1 13 2 13 11 0 8 -12 10 -10 10 10 0 15 3 20 8 13 5
-8 13 -4 26 15 23 33 101 92 121 92 9 0 18 7 21 15 4 10 20 15 45 15 21 0 39
5 39 11 0 6 7 17 15 25 8 9 15 12 15 8 0 -4 9 2 21 15 19 21 22 21 34 5 7 -11
19 -15 29 -11z m247 -512 c-11 -7 -10 -10 5 -14 10 -2 0 -5 -23 -6 -34 -1 -41
2 -37 14 4 9 19 15 38 15 22 0 27 -3 17 -9z m-680 -104 c-6 -6 -11 -24 -11
-40 0 -16 -4 -26 -10 -22 -15 9 -13 92 3 98 17 6 32 -22 18 -36z m629 -27 c0
-5 -4 -10 -10 -10 -5 0 -10 5 -10 10 0 6 5 10 10 10 6 0 10 -4 10 -10z m-550
-50 c0 -23 -4 -30 -20 -30 -24 0 -26 17 -3 42 21 24 23 23 23 -12z m234 -71
c5 -4 5 -15 1 -25 -10 -23 -6 -86 5 -98 14 -14 -31 -66 -56 -66 -14 0 -25 -8
-29 -20 -4 -13 -11 -17 -18 -13 -21 14 -97 9 -97 -5 0 -13 -7 -20 -84 -90 -41
-37 -44 -58 -18 -117 15 -35 19 -64 13 -117 -2 -18 -27 24 -29 47 0 11 -8 52
-17 90 -26 110 -28 172 -11 293 9 62 16 117 16 122 0 5 7 7 15 4 18 -7 16 -44
-5 -69 -12 -14 -12 -18 1 -26 23 -14 106 -11 123 6 18 18 33 19 39 3 2 -7 7
-10 11 -6 4 3 3 16 -4 27 -9 17 -8 21 5 21 8 0 15 5 15 10 0 6 11 10 25 10 29
0 65 32 66 58 0 12 3 10 12 -8 6 -14 16 -28 21 -31z m1114 -6 c-2 -25 -8 -48
-13 -50 -6 -2 -9 17 -7 47 2 27 8 50 14 50 5 0 8 -21 6 -47z m-902 15 c45 -34
144 -70 210 -75 69 -6 71 -7 86 -40 13 -26 13 -39 4 -58 -6 -14 -14 -25 -18
-25 -5 0 -8 -4 -8 -10 0 -5 7 -10 15 -10 21 0 19 -12 -6 -34 -13 -10 -19 -25
-16 -36 4 -16 2 -17 -21 -9 -14 5 -31 8 -38 5 -8 -3 -16 -1 -20 5 -3 6 -17 14
-30 19 -14 6 -24 18 -24 29 0 11 -15 30 -32 42 -18 13 -35 26 -38 29 -3 4 -26
19 -51 33 -55 33 -89 66 -68 68 8 1 17 1 21 0 4 0 0 18 -8 40 -7 23 -14 43
-14 44 0 6 45 -8 56 -17z m826 -51 c40 -15 34 -114 -9 -142 -26 -17 -25 -8 3
25 7 8 14 28 16 45 2 23 -1 30 -17 33 -25 5 -35 20 -35 52 1 22 2 23 13 9 7
-8 20 -18 29 -22z m-649 16 c-7 -2 -19 -2 -25 0 -7 3 -2 5 12 5 14 0 19 -2 13
-5z m602 -87 c15 -23 15 -27 0 -50 -21 -32 -31 -33 -39 -3 -18 69 7 103 39 53z
m-725 -123 c0 -14 -6 -23 -15 -23 -11 0 -15 11 -15 43 1 39 2 41 15 23 8 -11
15 -30 15 -43z m720 -3 c23 -23 25 -51 9 -83 -16 -30 -28 -37 -66 -37 -28 0
-33 4 -33 23 0 13 3 17 8 10 8 -13 62 -6 62 9 0 5 5 6 10 3 6 -4 10 7 10 26 0
31 -1 32 -14 14 -14 -19 -15 -19 -34 5 -18 22 -18 25 -3 37 22 17 28 16 51 -7z
m-1248 -122 c-7 -7 -12 -8 -12 -2 0 14 12 26 19 19 2 -3 -1 -11 -7 -17z m784
-86 c0 -10 -5 -19 -12 -19 -6 0 -9 9 -6 19 2 10 7 18 11 18 4 0 7 -8 7 -18z
m78 12 c8 -3 12 -12 10 -19 -7 -17 -34 -8 -34 11 0 16 2 16 24 8z m-496 -26
c10 -10 15 -10 21 1 5 7 14 12 21 9 21 -7 21 -43 0 -56 -13 -8 -20 -9 -20 -1
0 5 -4 8 -10 4 -5 -3 -7 -12 -3 -20 3 -10 -1 -15 -12 -15 -9 0 -13 5 -10 10 3
6 1 10 -4 10 -6 0 -11 -7 -11 -15 0 -8 -5 -15 -11 -15 -5 0 -7 5 -4 10 7 11
-1 12 -67 10 -68 -2 -88 6 -88 37 0 15 3 23 7 20 3 -4 13 -2 20 5 11 9 17 9
24 -3 6 -10 9 -11 9 -1 0 9 13 12 40 10 22 -1 43 1 46 5 11 11 39 8 52 -5z
m109 4 c10 -6 10 -12 -1 -28 -11 -15 -17 -16 -27 -7 -6 6 -9 19 -6 27 7 18 16
20 34 8z m53 -11 c0 -6 -4 -13 -10 -16 -5 -3 -10 1 -10 9 0 9 5 16 10 16 6 0
10 -4 10 -9z m331 -33 c10 -18 9 -20 -4 -15 -9 3 -18 1 -21 -6 -2 -7 -5 -3 -5
9 -1 18 6 34 15 34 2 0 8 -10 15 -22z m-84 -10 c-3 -8 -6 -5 -6 6 -1 11 2 17
5 13 3 -3 4 -12 1 -19z m-472 -38 c3 -5 -1 -10 -9 -10 -8 0 -18 5 -21 10 -3 6
1 10 9 10 8 0 18 -4 21 -10z m65 -25 c0 -8 -4 -15 -10 -15 -5 0 -10 7 -10 15
0 8 5 15 10 15 6 0 10 -7 10 -15z m69 -35 c-60 -24 -74 -27 -76 -15 -2 6 18
15 45 21 71 17 82 15 31 -6z m-269 -21 c0 -5 -4 -9 -10 -9 -5 0 -10 7 -10 16
0 8 5 12 10 9 6 -3 10 -10 10 -16z m546 -553 c1 -9 -4 -12 -11 -9 -8 2 -13 13
-12 24 1 21 19 9 23 -15z m-379 -23 c-3 -10 -5 -4 -5 12 0 17 2 24 5 18 2 -7
2 -21 0 -30z m442 -53 c0 -10 -3 -8 -9 5 -12 27 -12 43 0 25 5 -8 9 -22 9 -30z
m301 9 c0 -4 -7 -6 -15 -3 -8 4 -15 10 -15 15 0 4 7 6 15 3 8 -4 15 -10 15
-15z m-727 -4 c4 -8 2 -17 -2 -20 -5 -2 -11 4 -14 15 -6 23 8 27 16 5z m1347
5 c0 -5 -2 -10 -4 -10 -3 0 -8 5 -11 10 -3 6 -1 10 4 10 6 0 11 -4 11 -10z
m-1295 -44 c-2 -24 -45 -42 -56 -24 -10 16 17 47 40 45 11 0 17 -9 16 -21z
m125 4 c0 -5 -8 -10 -17 -10 -15 0 -16 2 -3 10 19 12 20 12 20 0z m-16 -66 c5
-14 4 -15 -9 -4 -17 14 -19 20 -6 20 5 0 12 -7 15 -16z m-44 -15 c0 -5 8 -9
17 -9 9 0 13 -3 10 -7 -4 -3 1 -12 11 -20 9 -8 11 -12 4 -8 -7 4 -15 -3 -20
-16 -5 -14 -11 -18 -16 -11 -3 6 -2 13 4 17 18 11 10 26 -20 36 -35 13 -39 24
-10 26 11 1 20 -2 20 -8z m78 -3 c-7 -8 -15 -12 -17 -11 -5 6 10 25 20 25 5 0
4 -6 -3 -14z m142 -26 c0 -5 -5 -10 -11 -10 -5 0 -7 5 -4 10 3 6 8 10 11 10 2
0 4 -4 4 -10z m-215 -10 c-3 -5 -12 -10 -18 -10 -7 0 -6 4 3 10 19 12 23 12
15 0z m408 -45 c-3 -9 -8 -14 -10 -11 -3 3 -2 9 2 15 9 16 15 13 8 -4z m-243
-5 c0 -5 -7 -10 -16 -10 -8 0 -12 5 -9 10 3 6 10 10 16 10 5 0 9 -4 9 -10z
m21 -33 c-6 -8 -8 -17 -4 -21 4 -3 -8 -1 -25 5 -37 13 -43 22 -8 13 13 -3 27
-1 30 5 4 6 10 11 13 11 3 0 0 -6 -6 -13z m106 -7 c-1 -11 -5 -20 -9 -20 -10
0 -10 4 -2 24 8 22 13 20 11 -4z m-17 -35 c11 -13 10 -14 -4 -9 -9 3 -16 10
-16 15 0 13 6 11 20 -6z m-860 -19 c0 -2 -7 -7 -16 -10 -8 -3 -12 -2 -9 4 6
10 25 14 25 6z m905 -6 c-3 -5 -12 -10 -18 -10 -7 0 -6 4 3 10 19 12 23 12 15
0z m-947 -55 c-6 -19 -16 -36 -23 -39 -7 -2 -3 12 8 35 24 48 28 50 15 4z
m229 -41 c15 -4 37 -8 48 -8 14 -1 20 -8 19 -23 0 -13 3 -23 8 -23 4 0 8 -7 8
-16 0 -13 -3 -12 -17 4 -25 30 -66 37 -87 17 -23 -23 -16 -39 19 -45 29 -5 31
-12 14 -40 -8 -13 -11 -13 -23 3 -7 9 -16 17 -19 17 -2 0 -14 -20 -26 -45 -12
-25 -25 -45 -31 -45 -5 0 -1 15 10 33 11 17 23 40 26 50 4 9 11 17 16 17 5 0
6 5 3 10 -4 6 -11 7 -17 4 -6 -4 -5 2 2 15 8 16 8 30 -1 55 -7 18 -9 42 -5 52
8 18 8 18 16 -2 5 -12 21 -25 37 -30z m-113 -3 c-8 -9 -22 12 -17 26 6 15 7
14 13 -3 4 -10 6 -21 4 -23z m220 23 c4 -10 1 -14 -6 -12 -15 5 -23 28 -10 28
5 0 13 -7 16 -16z m416 -44 c18 -12 2 -12 -25 0 -13 6 -15 9 -5 9 8 0 22 -4
30 -9z m-84 -68 c-17 -16 -18 -16 -5 5 7 12 15 20 18 17 3 -2 -3 -12 -13 -22z
m-632 -1 c3 -5 -1 -11 -9 -14 -9 -4 -12 -1 -8 9 6 16 10 17 17 5z m248 -13
c-7 -7 -12 -8 -12 -2 0 6 3 14 7 17 3 4 9 5 12 2 2 -3 -1 -11 -7 -17z m-376
-55 c0 -10 -7 -22 -13 -26 -7 -4 -13 -14 -13 -21 0 -8 -10 -16 -21 -19 l-21
-6 21 20 c11 11 21 28 21 38 0 10 3 21 7 24 12 12 21 7 19 -10z m294 -1 c0 -5
-7 -17 -15 -28 -14 -18 -14 -17 -4 9 12 27 19 34 19 19z m-386 -67 c3 -8 1
-15 -4 -15 -6 0 -10 7 -10 15 0 8 2 15 4 15 2 0 6 -7 10 -15z m310 -12 c-30
-46 -54 -96 -54 -114 0 -9 -7 -19 -15 -23 -23 -8 -18 12 16 67 16 27 28 55 25
63 -3 8 0 11 10 7 8 -3 14 1 14 11 0 9 5 16 11 16 7 0 4 -12 -7 -27z m472 15
c4 -6 3 -8 -4 -4 -6 3 -15 -2 -21 -11 -6 -10 -11 -13 -11 -7 0 9 19 34 26 34
2 0 6 -5 10 -12z m-673 -12 c3 3 3 -4 0 -17 -5 -16 -8 -19 -11 -9 -3 8 -10 22
-16 30 -9 13 -9 13 5 3 9 -7 18 -10 22 -7z m614 -2 c-3 -3 -12 -4 -19 -1 -8 3
-5 6 6 6 11 1 17 -2 13 -5z m-637 -69 c-7 -8 -16 -30 -19 -48 -5 -23 -13 -33
-29 -35 -19 -3 -20 -6 -11 -25 10 -21 9 -21 -5 -3 -13 17 -13 22 0 48 8 16 12
33 9 38 -3 5 0 7 8 4 7 -2 22 6 32 20 11 14 21 23 23 21 3 -3 -1 -11 -8 -20z
m124 16 c3 -5 -1 -11 -9 -14 -9 -4 -12 -1 -8 9 6 16 10 17 17 5z m601 -21 c-3
-5 -12 -10 -18 -10 -7 0 -6 4 3 10 19 12 23 12 15 0z m35 6 c0 -3 -4 -8 -10
-11 -5 -3 -10 -1 -10 4 0 6 5 11 10 11 6 0 10 -2 10 -4z m70 -6 c0 -5 -5 -10
-11 -10 -5 0 -7 5 -4 10 3 6 8 10 11 10 2 0 4 -4 4 -10z m-907 -15 c-3 -9 -8
-14 -10 -11 -3 3 -2 9 2 15 9 16 15 13 8 -4z m722 5 c-3 -5 -14 -10 -23 -9
-14 0 -13 2 3 9 27 11 27 11 20 0z m135 -10 c0 -5 -5 -10 -11 -10 -5 0 -7 5
-4 10 3 6 8 10 11 10 2 0 4 -4 4 -10z m-67 -7 c-7 -2 -21 -2 -30 0 -10 3 -4 5
12 5 17 0 24 -2 18 -5z m697 -3 c0 -5 -5 -10 -11 -10 -5 0 -7 5 -4 10 3 6 8
10 11 10 2 0 4 -4 4 -10z m-1482 -22 c-20 -30 -33 -32 -35 -6 -2 18 0 20 8 8
8 -13 11 -13 20 3 5 9 13 17 16 17 3 0 -1 -10 -9 -22z m273 -11 c-10 -9 -11
-8 -5 6 3 10 9 15 12 12 3 -3 0 -11 -7 -18z m-54 -34 c-10 -10 -20 -11 -38 -4
-19 8 -20 10 -5 10 12 1 16 6 13 16 -5 12 -2 12 19 3 21 -10 23 -14 11 -25z
m-257 0 c0 -5 -5 -15 -10 -23 -7 -12 -9 -10 -7 8 1 19 17 33 17 15z m370 -3
c0 -5 -2 -10 -4 -10 -3 0 -8 5 -11 10 -3 6 -1 10 4 10 6 0 11 -4 11 -10z
m-516 -44 c-3 -15 -8 -25 -11 -23 -2 3 -1 17 3 31 3 15 8 25 11 23 2 -3 1 -17
-3 -31z m408 7 c-3 -16 -7 -22 -9 -15 -3 6 -13 12 -24 12 -10 0 -19 5 -19 11
0 6 8 8 19 4 11 -3 22 -1 26 5 10 17 13 12 7 -17z m428 7 c0 -5 -7 -7 -15 -4
-8 4 -12 10 -9 15 6 11 24 2 24 -11z m-495 -8 c-3 -3 -11 0 -18 7 -9 10 -8 11
6 5 10 -3 15 -9 12 -12z m572 -6 c-13 -13 -16 -13 -20 -1 -4 8 1 15 11 18 24
5 27 0 9 -17z m126 9 c-3 -9 -8 -14 -10 -11 -3 3 -2 9 2 15 9 16 15 13 8 -4z
m-63 -10 c0 -8 -4 -15 -10 -15 -5 0 -10 7 -10 15 0 8 5 15 10 15 6 0 10 -7 10
-15z m-260 -5 c0 -5 -4 -10 -10 -10 -5 0 -10 5 -10 10 0 6 5 10 10 10 6 0 10
-4 10 -10z m31 -23 c-8 -8 -11 -7 -11 4 0 20 13 34 18 19 3 -7 -1 -17 -7 -23z
m1046 27 c-3 -3 -12 -4 -19 -1 -8 3 -5 6 6 6 11 1 17 -2 13 -5z m-1651 -28 c0
-13 -5 -22 -9 -19 -5 3 -16 -2 -26 -11 -17 -16 -18 -15 -14 8 3 16 10 23 19
19 8 -3 17 2 20 11 9 23 12 20 10 -8z m29 -13 c-3 -16 -11 -32 -16 -37 -5 -6
-4 5 1 25 6 18 10 35 10 36 0 2 3 3 6 3 3 0 3 -12 -1 -27z m215 -3 c-9 -6 -9
-9 1 -13 8 -3 0 -6 -18 -6 -17 -1 -39 6 -47 15 -20 19 -20 25 -1 18 8 -4 15
-1 15 4 0 8 9 8 31 0 20 -7 27 -13 19 -18z m-380 1 c0 -6 -5 -13 -12 -17 -7
-4 -8 -3 -4 4 4 7 4 12 1 12 -3 0 -13 -16 -21 -35 -8 -19 -19 -35 -24 -35 -11
0 -3 25 18 58 14 22 42 31 42 13z m1727 -7 c-3 -3 -12 -4 -19 -1 -8 3 -5 6 6
6 11 1 17 -2 13 -5z m-890 -10 c-3 -3 -12 -4 -19 -1 -8 3 -5 6 6 6 11 1 17 -2
13 -5z m-523 -19 c-7 -17 -54 -36 -54 -21 0 7 5 17 11 23 14 14 48 13 43 -2z
m996 11 c0 -3 -4 -8 -10 -11 -5 -3 -10 -1 -10 4 0 6 5 11 10 11 6 0 10 -2 10
-4z m-964 -22 c-3 -9 -6 -21 -6 -27 0 -8 -3 -8 -11 0 -13 13 -5 43 12 43 6 0
8 -7 5 -16z m33 -22 c-17 -7 -9 -21 14 -25 18 -4 17 -5 -7 -6 -25 -1 -28 2
-22 22 3 12 6 29 7 37 0 10 3 8 8 -5 5 -11 4 -21 0 -23z m441 29 c2 -1 -1 -6
-7 -12 -11 -11 -63 -2 -63 11 0 6 29 6 70 1z m-193 -23 c-3 -8 -6 -5 -6 6 -1
11 2 17 5 13 3 -3 4 -12 1 -19z m-530 -13 c0 -8 -7 -15 -15 -15 -12 0 -12 3
-2 15 7 8 13 15 15 15 1 0 2 -7 2 -15z m363 0 c-7 -8 -16 -15 -20 -15 -3 0 -7
7 -7 15 0 8 9 15 20 15 16 0 17 -3 7 -15z m-517 -23 c-13 -2 -23 -6 -24 -10 0
-4 -2 -15 -4 -25 -2 -10 6 -27 18 -38 l22 -21 -25 4 c-14 2 -24 9 -22 16 1 8
-2 11 -8 7 -6 -3 -7 -12 -4 -18 5 -9 4 -9 -5 -1 -10 9 -9 21 7 57 18 40 23 45
44 39 l23 -7 -22 -3z m202 -2 c13 -6 15 -9 5 -9 -8 0 -22 4 -30 9 -18 12 -2
12 25 0z m302 -6 c-3 -3 -12 -4 -19 -1 -8 3 -5 6 6 6 11 1 17 -2 13 -5z m-5
-41 c-7 -35 -22 -39 -22 -5 0 17 5 29 13 29 9 0 12 -9 9 -24z m-344 -8 c-3 -3
-9 2 -12 12 -6 14 -5 15 5 6 7 -7 10 -15 7 -18z m392 9 c0 -8 -4 -12 -10 -9
-5 3 -10 10 -10 16 0 5 5 9 10 9 6 0 10 -7 10 -16z m-530 -4 c0 -5 -2 -10 -4
-10 -3 0 -8 5 -11 10 -3 6 -1 10 4 10 6 0 11 -4 11 -10z m155 -40 c8 0 15 -4
15 -10 0 -16 -15 -12 -44 11 -14 11 -30 17 -36 14 -11 -7 -12 -3 -4 18 4 12
10 10 29 -9 13 -13 31 -24 40 -24z m634 8 c-5 -10 -11 -18 -12 -18 -2 0 -3 8
-3 18 0 10 6 19 13 19 8 0 9 -6 2 -19z m-819 -35 c8 -9 10 -13 3 -9 -16 9 -44
-4 -36 -17 4 -6 1 -7 -7 -2 -10 6 -9 11 6 22 19 14 19 15 -1 13 -30 -3 -37 -1
-30 10 8 13 45 3 65 -17z m500 7 c0 -5 -4 -10 -10 -10 -5 0 -10 5 -10 10 0 6
5 10 10 10 6 0 10 -4 10 -10z m-647 -39 c3 -13 0 -18 -7 -15 -7 3 -13 11 -13
19 0 22 14 18 20 -4z m1107 -1 c0 -5 -6 -10 -14 -10 -8 0 -18 5 -21 10 -3 6 3
10 14 10 12 0 21 -4 21 -10z m-256 -25 c3 -8 1 -15 -4 -15 -6 0 -10 7 -10 15
0 8 2 15 4 15 2 0 6 -7 10 -15z m-567 -40 c-6 -17 -34 -17 -41 0 -5 13 -2 14
17 4 21 -12 21 -11 4 8 -9 11 -14 23 -10 27 9 9 35 -24 30 -39z m-280 29 c-3
-3 -12 -4 -19 -1 -8 3 -5 6 6 6 11 1 17 -2 13 -5z m678 -4 c3 -5 -1 -10 -10
-10 -9 0 -13 5 -10 10 3 6 8 10 10 10 2 0 7 -4 10 -10z m-632 -7 c-7 -2 -19
-2 -25 0 -7 3 -2 5 12 5 14 0 19 -2 13 -5z m168 -24 c-5 -13 -10 -19 -10 -12
-1 15 10 45 15 40 3 -2 0 -15 -5 -28z m339 -13 c-6 -6 -11 -19 -11 -30 -1 -12
-5 -5 -8 14 -4 20 -2 38 4 42 13 9 27 -14 15 -26z m280 24 c0 -5 -5 -10 -11
-10 -5 0 -7 5 -4 10 3 6 8 10 11 10 2 0 4 -4 4 -10z m-230 -24 c0 -3 -4 -8
-10 -11 -5 -3 -10 -1 -10 4 0 6 5 11 10 11 6 0 10 -2 10 -4z m-350 -36 c-19
-13 -30 -13 -30 0 0 6 10 10 23 10 18 0 19 -2 7 -10z m-300 -40 c0 -6 10 -15
23 -20 l22 -9 -22 0 c-13 -1 -23 -6 -23 -13 0 -9 -3 -8 -12 1 -11 11 -10 14 0
18 10 4 10 8 1 19 -8 10 -8 14 0 14 6 0 11 -5 11 -10z m1004 -11 c29 4 56 -1
56 -10 0 -8 -12 -10 -35 -6 -19 3 -37 2 -40 -3 -7 -12 5 -41 15 -35 5 3 11 1
15 -5 11 -18 -33 -11 -87 14 -29 13 -60 26 -68 30 -8 3 5 4 30 1 25 -3 47 -10
48 -15 8 -22 31 -8 37 21 5 20 10 27 15 19 4 -6 10 -11 14 -11z m-79 1 c3 -6
-1 -7 -9 -4 -18 7 -21 14 -7 14 6 0 13 -4 16 -10z m-345 -25 c-7 -9 -15 -13
-18 -10 -3 2 1 11 8 20 7 9 15 13 18 10 3 -2 -1 -11 -8 -20z m563 18 c-7 -2
-19 -2 -25 0 -7 3 -2 5 12 5 14 0 19 -2 13 -5z m42 -3 c3 -5 1 -10 -4 -10 -6
0 -11 5 -11 10 0 6 2 10 4 10 3 0 8 -4 11 -10z m-698 -32 c-3 -8 -6 -5 -6 6
-1 11 2 17 5 13 3 -3 4 -12 1 -19z m163 7 c0 -8 -7 -15 -15 -15 -9 0 -12 6 -9
15 4 8 10 15 15 15 5 0 9 -7 9 -15z m470 0 c0 -8 -2 -15 -4 -15 -2 0 -6 7 -10
15 -3 8 -1 15 4 15 6 0 10 -7 10 -15z m110 -15 c0 -5 -5 -10 -11 -10 -5 0 -7
5 -4 10 3 6 8 10 11 10 2 0 4 -4 4 -10z m-945 -10 c3 -5 -1 -10 -10 -10 -9 0
-13 5 -10 10 3 6 8 10 10 10 2 0 7 -4 10 -10z m585 -4 c6 -8 18 -12 26 -9 9 3
14 -2 14 -15 0 -19 -1 -19 -35 -3 -19 9 -34 22 -35 29 0 16 15 15 30 -2z m94
-31 c-6 -16 -34 -21 -34 -7 0 13 11 22 26 22 8 0 11 -6 8 -15z m163 9 c-3 -3
-12 -4 -19 -1 -8 3 -5 6 6 6 11 1 17 -2 13 -5z m-1097 -20 c0 -2 -14 -4 -31
-4 -16 0 -28 4 -25 9 5 8 56 3 56 -5z m867 -30 c-9 -9 -28 6 -21 18 4 6 10 6
17 -1 6 -6 8 -13 4 -17z m53 8 c0 -13 -12 -22 -22 -16 -10 6 -1 24 13 24 5 0
9 -4 9 -8z m170 -2 c0 -5 -7 -7 -15 -4 -8 4 -15 8 -15 10 0 2 7 4 15 4 8 0 15
-4 15 -10z m-251 -36 c13 -14 30 -23 38 -20 8 3 12 2 8 -3 -3 -5 -1 -11 4 -13
5 -1 2 -20 -6 -40 -16 -41 -33 -42 -33 -2 0 15 6 24 16 24 8 0 12 5 9 10 -3 6
-14 10 -25 10 -13 0 -17 -5 -13 -20 13 -49 -25 3 -41 58 -10 30 12 29 43 -4z
m-302 -6 c-3 -8 -6 -5 -6 6 -1 11 2 17 5 13 3 -3 4 -12 1 -19z m-557 -8 c0 -4
-8 -11 -17 -14 -15 -6 -15 -8 -3 -16 12 -8 11 -10 -7 -10 -17 0 -21 5 -18 20
2 11 7 24 10 30 6 10 35 2 35 -10z m280 -2 c0 -5 -9 -4 -20 2 -11 6 -20 12
-20 14 0 2 9 2 20 -1 11 -3 20 -9 20 -15z m-373 6 c-3 -3 -12 -4 -19 -1 -8 3
-5 6 6 6 11 1 17 -2 13 -5z m31 -20 c-7 -15 -14 -21 -16 -15 -2 7 2 18 8 26
18 22 21 18 8 -11z m717 6 c-3 -5 -11 -10 -16 -10 -6 0 -7 5 -4 10 3 6 11 10
16 10 6 0 7 -4 4 -10z m-750 -10 c4 -6 -6 -10 -24 -10 -39 0 -48 15 -11 18 16
1 31 -2 35 -8z m1201 -4 c18 -19 18 -36 -1 -36 -14 0 -17 6 -14 27 0 4 -8 10
-18 14 -17 7 -17 8 0 8 10 1 25 -5 33 -13z m-149 -12 c-3 -3 -12 -4 -19 -1 -8
3 -5 6 6 6 11 1 17 -2 13 -5z m-1094 -21 c-5 -12 -2 -15 10 -10 9 3 17 2 17
-3 0 -6 -5 -10 -11 -10 -5 0 -7 -5 -3 -11 4 -7 1 -10 -7 -7 -8 3 -14 9 -14 14
0 5 -4 14 -8 21 -6 9 -1 14 20 22 1 1 -1 -7 -4 -16z m791 -39 c3 -8 2 -12 -4
-9 -6 3 -10 10 -10 16 0 14 7 11 14 -7z m276 -4 c0 -5 -7 -10 -16 -10 -8 0
-12 5 -9 10 3 6 10 10 16 10 5 0 9 -4 9 -10z m66 -15 c-1 -30 -1 -30 -27 -4
l-21 21 21 -7 c12 -4 21 -2 21 4 0 6 2 11 4 11 2 0 3 -11 2 -25z m-266 5 c13
-8 13 -10 -2 -10 -9 0 -20 5 -23 10 -8 13 5 13 25 0z m267 -72 c-3 -8 -6 -5
-6 6 -1 11 2 17 5 13 3 -3 4 -12 1 -19z m-1187 1 c0 -5 -12 -9 -26 -9 -14 0
-23 -4 -20 -9 4 -5 -3 -7 -14 -4 -11 3 -20 0 -20 -6 0 -6 -6 -11 -12 -11 -7 0
-1 11 14 24 25 23 78 33 78 15z m25 -9 c3 -5 1 -10 -4 -10 -6 0 -11 5 -11 10
0 6 2 10 4 10 3 0 8 -4 11 -10z m935 -30 c0 -5 -4 -10 -10 -10 -5 0 -10 5 -10
10 0 6 5 10 10 10 6 0 10 -4 10 -10z m-590 -70 c0 -24 -47 -125 -65 -140 -8
-7 -15 -17 -15 -23 0 -6 12 0 27 14 l27 24 -24 -34 c-19 -27 -20 -35 -9 -43
10 -7 7 -7 -9 -3 -21 6 -23 5 -13 -14 10 -18 7 -22 -17 -35 -31 -16 -55 -5
-45 20 4 10 0 12 -13 7 -12 -4 -15 -3 -9 6 6 10 3 11 -11 3 -107 -55 -126 -52
-105 20 17 54 124 161 200 200 55 28 81 28 81 -2z m-525 -30 c-3 -5 -11 -10
-16 -10 -6 0 -7 5 -4 10 3 6 11 10 16 10 6 0 7 -4 4 -10z m575 -28 c-8 -3 -18
-10 -22 -16 -10 -15 -20 -2 -13 16 4 10 14 14 28 10 15 -4 17 -7 7 -10z m-586
-94 c-4 -6 1 -17 12 -25 18 -13 18 -15 1 -24 -9 -6 -14 -15 -11 -21 4 -7 2 -8
-4 -4 -7 4 -10 17 -8 29 1 12 1 16 -1 10 -6 -18 -20 -16 -27 2 -3 9 0 15 8 15
8 0 16 7 20 15 3 8 8 15 11 15 4 0 3 -5 -1 -12z m-51 -91 c-10 -20 -21 -37
-26 -37 -6 0 -6 5 0 13 5 6 8 23 7 37 -1 14 3 28 10 32 21 14 25 -8 9 -45z
m-33 8 c-7 -9 -15 -13 -19 -10 -3 3 1 10 9 15 21 14 24 12 10 -5z m74 -1 c9
-3 16 -10 16 -16 0 -5 -4 -7 -8 -4 -5 3 -8 -5 -8 -17 1 -15 -4 -22 -17 -21
-13 2 -16 -3 -11 -18 4 -14 2 -18 -5 -14 -11 7 -10 49 3 79 9 19 9 19 30 11z
m1764 -42 c2 -7 -3 -12 -12 -12 -9 0 -16 7 -16 16 0 17 22 14 28 -4z m-1885
-84 c10 2 25 -2 32 -8 12 -10 14 -7 12 18 -1 17 -5 28 -9 26 -4 -2 -10 1 -14
7 -4 8 -3 9 4 5 7 -4 12 -2 12 6 0 7 14 -2 30 -20 17 -18 30 -40 30 -48 0 -8
4 -14 9 -14 19 0 39 -65 32 -105 -6 -37 -7 -38 -13 -13 -3 15 -1 31 3 35 10
10 -11 63 -24 63 -13 0 -37 27 -37 41 0 31 -13 -5 -16 -46 -5 -49 2 -58 15
-22 7 16 8 8 6 -30 -2 -29 -7 -58 -11 -65 -4 -7 -4 -10 1 -6 4 4 15 2 23 -5
13 -10 14 -9 4 10 -18 34 -14 38 12 12 13 -14 27 -42 30 -64 4 -22 8 -47 10
-55 15 -56 16 -71 6 -65 -6 4 -10 -4 -10 -20 0 -15 4 -24 10 -20 6 3 10 2 10
-4 0 -5 -4 -13 -10 -16 -5 -3 -10 -10 -10 -16 0 -5 5 -9 10 -9 6 0 10 7 10 15
0 8 5 15 10 15 6 0 10 14 10 30 0 40 26 40 32 -1 4 -25 1 -32 -19 -40 -37 -14
-25 -66 19 -82 7 -2 9 -8 5 -13 -4 -5 -12 -3 -16 4 -4 8 -16 15 -27 16 -23 4
-67 78 -51 88 7 4 1 11 -14 18 -25 11 -31 33 -15 58 4 7 0 15 -11 19 -24 9
-33 23 -33 51 0 24 -18 70 -46 125 -9 15 -12 32 -9 37 3 6 2 10 -3 10 -10 0
-10 0 -16 100 -3 51 -2 59 2 25 6 -41 10 -49 25 -47z m437 85 c-1 -5 -7 -19
-15 -33 l-14 -25 -1 26 c0 14 3 29 7 32 9 9 23 9 23 0z m290 -86 c-10 -10 -12
-8 -7 11 3 12 1 22 -5 22 -5 0 -6 5 -2 12 5 8 11 5 17 -10 8 -17 7 -26 -3 -35z
m-576 18 c-4 -8 -8 -15 -10 -15 -2 0 -4 7 -4 15 0 8 4 15 10 15 5 0 7 -7 4
-15z m74 -5 c-7 -10 -14 -17 -17 -15 -4 4 18 35 25 35 2 0 -1 -9 -8 -20z
m1897 0 c3 -5 1 -10 -4 -10 -6 0 -11 5 -11 10 0 6 2 10 4 10 3 0 8 -4 11 -10z
m-1926 -52 c-9 -16 -14 -19 -17 -9 -2 7 2 17 9 22 20 13 21 11 8 -13z m52 -11
c-8 -8 -11 -7 -11 4 0 20 13 34 18 19 3 -7 -1 -17 -7 -23z m428 -7 c0 -10 -3
-8 -9 5 -12 27 -12 43 0 25 5 -8 9 -22 9 -30z m91 -10 c11 -11 16 -20 11 -20
-6 0 -13 5 -16 10 -10 17 -24 11 -20 -8 1 -9 -8 -30 -21 -45 l-24 -28 0 28 c0
22 2 25 10 13 9 -13 10 -13 11 0 4 33 17 70 25 70 2 0 13 -9 24 -20z m1030 -2
c0 -13 -23 -5 -28 10 -2 7 2 10 12 6 9 -3 16 -11 16 -16z m-1620 -55 c0 -31
-3 -53 -7 -49 -5 4 -8 32 -8 61 0 29 3 51 8 48 4 -2 7 -29 7 -60z m115 58 c7
-12 -12 -24 -25 -16 -11 7 -4 25 10 25 5 0 11 -4 15 -9z m130 -10 c-3 -6 -14
-11 -23 -11 -13 0 -13 2 4 14 21 15 30 14 19 -3z m229 3 c4 -10 1 -14 -6 -12
-15 5 -23 28 -10 28 5 0 13 -7 16 -16z m-414 -16 c0 -18 -2 -20 -9 -8 -6 8 -7
18 -5 22 9 14 14 9 14 -14z m86 -30 c-9 -12 -16 -17 -16 -10 0 18 24 54 28 42
2 -5 -4 -20 -12 -32z m374 32 c0 -5 -5 -10 -11 -10 -5 0 -7 5 -4 10 3 6 8 10
11 10 2 0 4 -4 4 -10z m-283 -32 c-3 -8 -6 -5 -6 6 -1 11 2 17 5 13 3 -3 4
-12 1 -19z m27 -18 c-4 -26 -3 -40 4 -40 6 0 9 6 6 13 -6 17 21 41 36 32 11
-7 8 -53 -8 -115 -8 -30 -10 -32 -16 -15 -4 11 -12 28 -17 38 -6 11 -8 21 -5
24 3 3 -1 12 -9 19 -10 11 -11 21 -2 49 14 46 19 44 11 -5z m-221 -65 c-4 -65
-11 -79 -32 -65 -11 6 -12 12 -3 22 6 8 13 33 14 56 2 23 6 42 10 42 3 0 4 10
2 23 -4 20 -4 20 5 2 5 -11 7 -47 4 -80z m44 53 c-3 -7 -5 -2 -5 12 0 14 2 19
5 13 2 -7 2 -19 0 -25z m333 -18 c0 -5 -5 -10 -11 -10 -5 0 -7 5 -4 10 3 6 8
10 11 10 2 0 4 -4 4 -10z m1515 0 c3 -5 1 -10 -4 -10 -6 0 -11 5 -11 10 0 6 2
10 4 10 3 0 8 -4 11 -10z m-1845 -22 c0 -6 -6 -5 -15 2 -8 7 -15 14 -15 16 0
2 7 1 15 -2 8 -4 15 -11 15 -16z m-101 -25 c0 -25 -1 -25 -8 -8 -5 11 -7 23
-4 28 8 14 13 7 12 -20z m871 17 c0 -5 -7 -10 -16 -10 -8 0 -12 5 -9 10 3 6
10 10 16 10 5 0 9 -4 9 -10z m-504 -116 c-20 -63 -20 -75 -1 -68 9 4 23 -4 34
-17 l20 -24 25 55 c14 30 25 51 26 45 0 -5 4 -4 9 4 8 12 8 -31 0 -76 -4 -22
2 -34 14 -27 6 4 8 3 4 -1 -14 -15 -35 -14 -42 3 -6 15 -8 15 -15 -3 -5 -11
-9 -28 -9 -39 -1 -14 2 -16 12 -7 11 9 14 5 15 -19 1 -33 -15 -50 -24 -26 -9
25 -26 7 -20 -20 8 -29 3 -30 -24 -7 -21 18 -28 49 -9 37 14 -9 5 24 -28 96
-33 73 -44 110 -32 110 5 0 12 -7 15 -15 9 -22 26 -6 18 17 -4 14 -2 18 5 14
15 -9 14 -4 -4 30 -23 44 -18 64 6 24 21 -33 21 -36 5 -86z m529 106 c3 -5 1
-10 -4 -10 -6 0 -11 5 -11 10 0 6 2 10 4 10 3 0 8 -4 11 -10z m-808 -20 c-1
-11 -5 -20 -9 -20 -10 0 -10 4 -2 24 8 22 13 20 11 -4z m919 -5 c17 -16 14
-18 -10 -9 -9 3 -16 10 -16 15 0 13 9 11 26 -6z m-858 -18 c2 -9 -2 -17 -8
-17 -6 0 -8 5 -5 10 3 6 1 10 -4 10 -6 0 -11 5 -11 11 0 17 25 4 28 -14z m332
13 c0 -5 -9 -18 -21 -29 -12 -11 -18 -24 -14 -30 3 -6 0 -11 -7 -11 -8 0 -14
9 -14 20 0 11 6 20 13 20 7 0 18 9 25 20 14 22 18 25 18 10z m-143 -32 c-3 -8
-6 -5 -6 6 -1 11 2 17 5 13 3 -3 4 -12 1 -19z m503 8 c0 -2 -7 -7 -16 -10 -8
-3 -12 -2 -9 4 6 10 25 14 25 6z m155 -16 c-3 -5 -12 -7 -20 -3 -21 7 -19 13
6 13 11 0 18 -4 14 -10z m-960 -19 c3 -6 -3 -15 -14 -20 -27 -15 -31 -14 -31
7 0 14 2 15 10 2 8 -13 10 -12 10 3 0 18 15 23 25 8z m785 0 c0 -17 -25 -30
-40 -20 -13 8 -13 10 0 19 19 12 40 13 40 1z m175 -16 c-2 -11 -4 -21 -4 -23
-1 -1 -10 2 -20 7 -23 13 -91 22 -90 13 3 -20 -3 -28 -21 -28 -22 0 -27 20 -8
32 18 12 70 21 110 20 31 -1 37 -4 33 -21z m-36 -30 c12 -3 21 -12 21 -18 0
-7 4 -6 10 3 8 12 10 10 10 -10 0 -18 3 -21 9 -12 7 11 9 11 14 -1 4 -10 17
-14 40 -12 29 3 36 0 39 -19 6 -30 -1 -46 -20 -46 -31 0 10 -20 43 -21 29 -1
30 -1 5 -9 -14 -4 -18 -9 -10 -9 13 -1 13 -2 0 -11 -8 -5 -17 -5 -20 -1 -5 8
-17 11 -69 14 -18 1 -27 7 -24 15 3 6 0 12 -6 12 -6 0 -11 -6 -12 -12 0 -10
-2 -10 -6 0 -2 6 -13 12 -24 12 -17 0 -24 -11 -20 -33 1 -5 -3 -6 -9 -2 -6 3
-8 10 -5 15 3 6 -13 13 -37 16 -33 6 -38 9 -23 15 18 6 18 7 3 14 -19 8 -55
-20 -38 -28 6 -3 5 -4 -2 -2 -7 1 -11 9 -9 16 2 8 3 27 2 43 -1 22 1 27 11 19
7 -6 23 -14 36 -17 17 -6 22 -3 23 11 1 17 2 17 6 0 2 -9 8 -15 12 -12 16 9
81 13 81 4 0 -10 37 -49 46 -49 4 0 4 9 1 19 -3 13 1 22 12 25 9 3 2 4 -16 2
-21 -1 -34 3 -38 12 -3 9 -15 13 -34 10 -23 -3 -32 1 -42 19 -7 13 -16 23 -21
23 -4 0 -8 4 -8 9 0 9 35 7 69 -4z m166 -25 c-3 -5 -14 -10 -23 -10 -15 0 -15
2 -2 10 20 13 33 13 25 0z m-335 -49 c0 -6 -4 -11 -10 -11 -5 0 -10 7 -10 15
0 18 -16 20 -23 3 -4 -8 -6 -7 -6 4 -1 9 5 18 11 20 14 5 38 -15 38 -31z
m-704 -6 c4 -14 4 -29 0 -32 -3 -4 -6 1 -6 11 0 9 -4 14 -10 11 -5 -3 -10 3
-10 14 0 29 18 26 26 -4z m1098 17 c2 -4 1 -14 -3 -21 -6 -10 -10 -9 -14 3 -7
17 -37 22 -37 7 0 -5 7 -16 15 -24 16 -16 10 -27 -14 -27 -11 0 -16 10 -17 35
0 33 1 35 32 35 18 0 35 -4 38 -8z m-857 -52 c-1 -11 -7 -20 -14 -20 -11 0
-11 4 -1 20 7 11 14 20 15 20 1 0 1 -9 0 -20z m156 -60 c-3 -12 -8 -19 -11
-16 -5 6 5 36 12 36 2 0 2 -9 -1 -20z m-189 1 c3 -5 -1 -11 -9 -15 -9 -3 -15
0 -15 9 0 16 16 20 24 6z m623 3 c-3 -3 -12 -4 -19 -1 -8 3 -5 6 6 6 11 1 17
-2 13 -5z m129 -4 c19 8 24 6 24 -6 0 -10 6 -14 15 -10 21 8 67 -37 59 -58 -4
-10 -13 -15 -20 -12 -16 6 -19 -10 -4 -19 5 -3 6 -13 3 -22 -6 -15 -7 -14 -14
3 -6 16 -8 16 -8 2 -1 -9 4 -20 10 -23 6 -4 8 -13 5 -21 -3 -8 0 -14 7 -14 7
0 3 -7 -7 -15 -18 -14 -19 -15 -2 -15 14 0 17 -5 12 -22 -3 -13 -6 -29 -6 -36
0 -7 -4 -10 -10 -7 -6 3 -7 -1 -4 -9 3 -9 1 -16 -5 -16 -6 0 -11 5 -11 11 0
30 -92 62 -104 36 -3 -7 -3 -2 0 11 5 19 1 23 -25 28 -34 7 -47 19 -31 29 5 3
10 1 10 -5 0 -7 9 -10 23 -7 80 19 87 19 81 3 -7 -19 9 -21 24 -3 11 13 1 39
-14 36 -27 -5 -55 2 -48 12 4 8 -1 9 -16 4 -19 -6 -21 -5 -11 13 18 33 13 52
-15 63 -15 5 -24 12 -21 15 3 3 13 2 22 -4 16 -9 114 3 125 15 3 3 -12 3 -32
-1 -33 -6 -38 -4 -38 12 0 10 -4 23 -10 30 -7 8 -7 9 1 3 7 -6 21 -6 35 -1z
m-719 -32 c-3 -8 -6 -5 -6 6 -1 11 2 17 5 13 3 -3 4 -12 1 -19z m1113 6 c0 -8
-4 -12 -10 -9 -5 3 -10 10 -10 16 0 5 5 9 10 9 6 0 10 -7 10 -16z m-924 -24
c-1 -29 -20 -48 -30 -31 -6 9 16 61 25 61 4 0 6 -13 5 -30z m894 -5 c0 -5 -5
-3 -10 5 -5 8 -10 20 -10 25 0 6 5 3 10 -5 5 -8 10 -19 10 -25z m-1007 1 c17
6 24 -10 8 -20 -4 -3 -7 -21 -4 -40 2 -26 -1 -36 -14 -40 -10 -3 -6 -4 9 -2
19 2 25 -1 21 -11 -3 -8 -12 -12 -20 -9 -8 3 -19 6 -24 6 -12 0 -12 37 1 45 6
3 10 17 10 30 0 13 -4 27 -10 30 -5 3 -10 12 -10 18 0 9 3 8 8 -1 5 -7 16 -10
25 -6z m487 -5 c0 -5 20 -15 45 -22 25 -7 45 -18 45 -24 0 -16 -21 -35 -39
-35 -12 0 -11 3 2 18 16 17 14 19 -38 37 -56 18 -72 35 -35 35 11 0 20 -4 20
-9z m498 -17 c0 -17 -3 -22 -8 -13 -5 6 -6 18 -3 26 8 19 11 16 11 -13z m-588
6 c0 -5 -7 -7 -15 -4 -8 4 -15 8 -15 10 0 2 7 4 15 4 8 0 15 -4 15 -10z m110
-31 c10 -7 2 -8 -25 -4 -22 4 -47 11 -55 16 -10 7 -2 8 25 4 22 -4 47 -11 55
-16z m-543 -11 c-3 -8 -6 -5 -6 6 -1 11 2 17 5 13 3 -3 4 -12 1 -19z m1113 12
c0 -5 -5 -10 -11 -10 -5 0 -7 5 -4 10 3 6 8 10 11 10 2 0 4 -4 4 -10z m-994
-56 c-17 -19 -29 2 -15 27 11 22 12 23 19 4 4 -11 2 -25 -4 -31z m281 -6 c-3
-8 -6 -5 -6 6 -1 11 2 17 5 13 3 -3 4 -12 1 -19z m73 2 c0 -3 9 -6 20 -7 11
-1 18 2 15 8 -4 5 3 9 14 9 27 0 28 -39 2 -68 -23 -28 -37 -28 -44 -1 -5 17
-2 20 14 16 34 -9 20 9 -16 20 -25 8 -35 8 -38 -1 -2 -6 -7 -8 -11 -5 -12 11
6 38 25 36 10 -1 19 -4 19 -7z m497 -25 c-4 -8 -16 -15 -28 -15 -21 0 -21 0 2
19 26 21 35 20 26 -4z m-861 -23 c-3 -2 -14 2 -25 10 -12 8 -18 18 -14 21 3 4
15 0 25 -10 10 -9 16 -18 14 -21z m1068 2 c4 -10 1 -14 -6 -12 -15 5 -23 28
-10 28 5 0 13 -7 16 -16z m-604 -24 c0 -5 -4 -10 -10 -10 -5 0 -10 5 -10 10 0
6 5 10 10 10 6 0 10 -4 10 -10z m87 -36 c-3 -3 -12 -4 -19 -1 -8 3 -5 6 6 6
11 1 17 -2 13 -5z m-202 -21 c-2 -10 -4 -25 -5 -33 -1 -10 -4 -9 -9 5 -9 22
-4 45 9 45 5 0 7 -8 5 -17z m515 2 c-7 -9 -15 -13 -17 -11 -7 7 7 26 19 26 6
0 6 -6 -2 -15z m286 -23 c-4 -3 -11 0 -16 8 -15 24 -11 33 6 15 9 -9 13 -19
10 -23z m-51 10 c-3 -3 -11 0 -18 7 -9 10 -8 11 6 5 10 -3 15 -9 12 -12z m79
-48 c3 -8 2 -12 -4 -9 -6 3 -10 10 -10 16 0 14 7 11 14 -7z m56 -74 c0 -5 -4
-10 -10 -10 -5 0 -10 5 -10 10 0 6 5 10 10 10 6 0 10 -4 10 -10z"/>
<path d="M3230 4140 c0 -5 7 -7 15 -4 8 4 15 8 15 10 0 2 -7 4 -15 4 -8 0 -15
-4 -15 -10z"/>
<path d="M2365 2230 c3 -5 10 -10 16 -10 5 0 9 5 9 10 0 6 -7 10 -16 10 -8 0
-12 -4 -9 -10z"/>
<path d="M1365 709 c-4 -6 -4 -13 -1 -16 3 -4 6 -1 6 6 0 7 5 9 12 5 7 -4 8
-3 4 4 -9 15 -13 15 -21 1z"/>
<path d="M1760 820 c0 -5 5 -10 10 -10 6 0 10 5 10 10 0 6 -4 10 -10 10 -5 0
-10 -4 -10 -10z"/>
<path d="M1850 535 c0 -8 5 -15 10 -15 6 0 10 7 10 15 0 8 -4 15 -10 15 -5 0
-10 -7 -10 -15z"/>
<path d="M2386 524 c-6 -16 2 -18 22 -5 11 7 11 9 -1 14 -9 3 -18 -1 -21 -9z"/>
<path d="M2520 390 c0 -14 15 -19 29 -11 9 6 7 10 -8 14 -12 3 -21 1 -21 -3z"/>
<path d="M2505 350 c27 -12 35 -12 35 0 0 6 -12 10 -27 9 -25 0 -26 -1 -8 -9z"/>
<path d="M236 4133 c-102 -263 -149 -425 -185 -643 -86 -529 -35 -1047 153
-1540 l51 -135 3 592 c1 326 1 859 0 1184 -3 591 -3 591 -22 542z"/>
<path d="M5812 3000 c0 -1121 -5 -1062 61 -834 77 263 106 460 114 751 10 379
-37 701 -146 1013 l-29 85 0 -1015z"/>
<path d="M1581 451 c-8 -5 -10 -14 -5 -22 4 -7 7 -27 6 -44 -2 -21 0 -27 8
-19 6 6 10 30 8 52 -2 32 -6 40 -17 33z"/>
<path d="M1645 360 c3 -5 10 -10 16 -10 5 0 9 5 9 10 0 6 -7 10 -16 10 -8 0
-12 -4 -9 -10z"/>
<path d="M1645 330 c3 -5 10 -10 16 -10 5 0 9 5 9 10 0 6 -7 10 -16 10 -8 0
-12 -4 -9 -10z"/>
<path d="M2308 93 c7 -3 16 -2 19 1 4 3 -2 6 -13 5 -11 0 -14 -3 -6 -6z"/>
</g>
</svg>
